HIERARCHY
ROOT Hips
{
	OFFSET 0.00000 0.00000 0.00000
	CHANNELS 6 Xposition Yposition Zposition Yrotation Zrotation Xrotation 
	JOINT Lumbar
	{
		OFFSET 0 0 0
		CHANNELS 3 Zrotation Xrotation Yrotation
		JOINT Neck
		{
			OFFSET 0.00 0.2701 0.00
			CHANNELS 3 Zrotation Xrotation Yrotation
			End Site
			{
				OFFSET 0.00 0.1379 0.00
			}
		}
		JOINT RightShoulder
		{
			OFFSET 0.0119 0.2289 0.1181
			CHANNELS 3 Zrotation Xrotation Yrotation
			JOINT RightElbow
			{
				OFFSET 0.00 -0.1475 0.00
				CHANNELS 2 Zrotation Yrotation
				JOINT RightWrist
				{
					OFFSET 0.00 -0.1605 0.00
					CHANNELS 2 Zrotation Xrotation
					End Site
					{
						OFFSET 0.0040 -0.1068 0.0006
					}
				}
			}
		}
		JOINT LeftShoulder
		{
			OFFSET 0.0119 0.2289 -0.1181
			CHANNELS 3 Zrotation Xrotation Yrotation
			JOINT LeftElbow
			{
				OFFSET 0.00 -0.1475 0.00
				CHANNELS 2 Zrotation Yrotation
				JOINT LeftWrist
				{
					OFFSET 0.00 -0.1605 0.00
					CHANNELS 2 Zrotation Xrotation
					End Site
					{
						OFFSET 0.0040 -0.1068 -0.0006
					}
				}
			}
		}
	}
	JOINT RightHip
	{
		OFFSET 0.0316 -0.0424 0.0458
		CHANNELS 3 Zrotation Xrotation Yrotation
		JOINT RightKnee
		{
			OFFSET 0.00 -0.2438 0.00
			CHANNELS 1 Zrotation
			JOINT RightAnkle
			{
				OFFSET 0.00 -0.2449 0.00
				CHANNELS 3 Zrotation Xrotation Yrotation
				End Site
				{
					OFFSET 0.1237 -0.0542 0.0051
				}
			}
		}
	}
	JOINT LeftHip
	{
		OFFSET 0.0316 -0.0424 -0.0458
		CHANNELS 3 Zrotation Xrotation Yrotation
		JOINT LeftKnee
		{
			OFFSET 0.00 -0.2438 0.00
			CHANNELS 1 Zrotation
			JOINT LeftAnkle
			{
				OFFSET 0.00 -0.2449 0.00
				CHANNELS 3 Zrotation Xrotation Yrotation
				End Site
				{
					OFFSET 0.1237 -0.0542 -0.0051
				}
			}
		}
	}
}
MOTION
Frames: 28
Frame Time: 0.02
0.00021 4e-05 -8e-05 22.10486 -24.90369 -6.9094 43.81325 2.76615 -2.23333 -15.15887 -0.47199 -0.45968 88.89757 -93.10703 -89.99945 5.32875 68.01392 -13.35562 0.48824 67.12191 100.79003 -64.17041 6.95215 -100.07741 11.53645 -0.80752 41.06065 -4.26815 -2.09132 -22.50781 -7.17827 -3.82552 -2.64414 44.74403 8.68907 0.06011 -27.82951 -6.65025 3.16891 2.27809
0.00025 4e-05 -0.0001 22.10244 -24.89358 -6.9102 43.80669 2.76804 -2.22909 -15.15924 -0.4747 -0.45979 89.10952 -93.09253 -89.99947 5.32875 68.0462 -13.34121 0.45586 67.2444 100.77662 -64.17049 6.94666 -100.09902 11.54787 -0.81157 41.04322 -4.28112 -2.17043 -22.50744 -7.17091 -3.80746 -2.63616 44.72664 8.6826 0.02546 -27.83072 -6.64963 3.16879 2.27857
0.00028 4e-05 -0.00011 22.10004 -24.88351 -6.911 43.80016 2.76991 -2.22486 -15.1596 -0.4774 -0.4599 89.32093 -93.07811 -89.99949 5.32875 68.07834 -13.32684 0.42355 67.36664 100.76324 -64.17056 6.9412 -100.12058 11.55925 -0.81563 41.02583 -4.29407 -2.24938 -22.50709 -7.16357 -3.78945 -2.6282 44.7093 8.67617 -0.00896 -27.83192 -6.64901 3.16865 2.27903
0.00032 5e-05 -0.00013 22.09764 -24.87343 -6.91181 43.79362 2.77179 -2.22064 -15.15996 -0.4801 -0.46001 89.53224 -93.06367 -89.99951 5.32875 68.11051 -13.31247 0.39127 67.48877 100.74986 -64.17064 6.93573 -100.14213 11.57064 -0.81967 41.00845 -4.307 -2.32826 -22.50673 -7.15623 -3.77145 -2.62024 44.69197 8.66972 -0.04348 -27.83312 -6.64839 3.16853 2.27951
0.00035 5e-05 -0.00014 22.09521 -24.86331 -6.91262 43.78706 2.77368 -2.21641 -15.16032 -0.48281 -0.46013 89.74406 -93.04914 -89.99953 5.32875 68.14283 -13.29807 0.35893 67.61112 100.73647 -64.17071 6.93025 -100.16373 11.58207 -0.8237 40.99102 -4.31993 -2.40726 -22.50636 -7.14888 -3.75341 -2.61226 44.67458 8.66322 -0.07829 -27.83433 -6.64778 3.16844 2.28
0.00039 5e-05 -0.00016 22.09287 -24.85333 -6.91339 43.78058 2.77551 -2.21217 -15.16068 -0.4855 -0.46024 89.9546 -93.03493 -89.99955 5.32875 68.17457 -13.28376 0.32668 67.73313 100.72312 -64.17079 6.92482 -100.1852 11.59336 -0.82781 40.97374 -4.33293 -2.48609 -22.50604 -7.14157 -3.73549 -2.60433 44.65734 8.65693 -0.11191 -27.83552 -6.64714 3.16822 2.28042
0.00042 5e-05 -0.00017 22.09037 -24.84309 -6.91424 43.77395 2.77746 -2.20797 -15.16105 -0.48823 -0.46035 90.16744 -93.02011 -89.99957 5.32875 68.20745 -13.26929 0.2943 67.85565 100.70969 -64.17087 6.9193 -100.2069 11.60491 -0.83176 40.95617 -4.34577 -2.56518 -22.50562 -7.13418 -3.71733 -2.59632 44.63982 8.65024 -0.14784 -27.83674 -6.64656 3.16824 2.28097
0.00046 6e-05 -0.00019 22.088 -24.83309 -6.91503 43.76745 2.77931 -2.20373 -15.16141 -0.49092 -0.46046 90.37822 -93.00584 -89.99959 5.32875 68.23929 -13.25496 0.26203 67.97774 100.69634 -64.17094 6.91385 -100.22838 11.61623 -0.83586 40.93887 -4.35876 -2.64405 -22.50528 -7.12686 -3.69939 -2.58838 44.62256 8.6439 -0.18172 -27.83793 -6.64592 3.16805 2.28141
0.00049 6e-05 -0.0002 22.08583 -24.82338 -6.91569 43.76113 2.78101 -2.19944 -15.16177 -0.49357 -0.46057 90.58636 -92.99227 -89.99962 5.32875 68.26984 -13.24079 0.22989 68.09923 100.68303 -64.171 6.90852 -100.24965 11.62725 -0.84012 40.92191 -4.37194 -2.72263 -22.50509 -7.11964 -3.68172 -2.58054 44.60562 8.63805 -0.21276 -27.83909 -6.64522 3.16757 2.28169
0.00053 6e-05 -0.00022 22.08263 -24.81198 -6.91694 43.75382 2.78349 -2.19541 -15.16214 -0.49645 -0.46069 90.80936 -92.97479 -89.99963 5.32875 68.30772 -13.2257 0.197 68.22397 100.66934 -64.17112 6.90262 -100.2723 11.63992 -0.84341 40.90301 -4.38407 -2.80279 -22.50418 -7.11189 -3.66251 -2.57215 44.58684 8.62958 -0.25913 -27.84044 -6.6449 3.16865 2.28283
0.00056 6e-05 -0.00024 22.08154 -24.80414 -6.91701 43.74861 2.78436 -2.19086 -15.16249 -0.49884 -0.46079 91.00118 -92.96548 -89.99967 5.32875 68.33021 -13.21255 0.1657 68.34198 100.65655 -64.17113 6.89783 -100.29195 11.64917 -0.84876 40.88818 -4.39836 -2.87967 -22.50472 -7.10525 -3.64653 -2.56491 44.57194 8.62651 -0.27383 -27.84139 -6.64378 3.16653 2.28219
0.00059 6e-05 -0.00027 22.08676 -24.80611 -6.9134 43.74909 2.78061 -2.18467 -15.16264 -0.50003 -0.46083 91.10512 -92.97924 -89.99972 5.32875 68.30948 -13.20458 0.13858 68.44017 100.64551 -64.17083 6.89688 -100.30406 11.64849 -0.85964 40.88492 -4.41905 -2.94706 -22.5099 -7.10175 -3.63971 -2.56101 44.56784 8.63934 -0.19515 -27.84118 -6.64029 3.15473 2.27622
0.00062 6e-05 -0.00031 22.094 -24.81163 -6.90867 43.7517 2.7753 -2.17798 -15.16279 -0.5007 -0.46085 91.1781 -93.0011 -89.99976 5.32875 68.27351 -13.19857 0.11312 68.53179 100.63553 -64.17043 6.89694 -100.31311 11.64446 -0.87256 40.88568 -4.44181 -3.01118 -22.51642 -7.09937 -3.63609 -2.55824 44.56761 8.65739 -0.08583 -27.84057 -6.63604 3.13988 2.26855
0.00066 6e-05 -0.00035 22.09996 -24.81548 -6.90475 43.75337 2.77087 -2.17167 -15.16302 -0.50151 -0.46087 91.26688 -93.01879 -89.99991 5.32875 68.24512 -13.19173 0.08699 68.62738 100.62555 -64.17009 6.89595 -100.32304 11.64237 -0.88464 40.88433 -4.46331 -3.07725 -22.52189 -7.09641 -3.63081 -2.55483 44.5655 8.67233 0.00514 -27.84017 -6.63225 3.12701 2.26196
0.00069 6e-05 -0.00038 22.10742 -24.81958 -6.89958 43.75491 2.76572 -2.16475 -15.1629 -0.50273 -0.4609 91.34868 -93.03847 -89.99986 5.32875 68.21383 -13.18464 0.06039 68.71909 100.61351 -64.1697 6.89725 -100.33484 11.63865 -0.89649 40.88415 -4.48617 -3.14169 -22.52919 -7.09371 -3.6264 -2.55189 44.5639 8.69038 0.1146 -27.83964 -6.62797 3.11165 2.25406
0.00072 6e-05 -0.00042 22.11225 -24.824 -6.89671 43.75722 2.76169 -2.15891 -15.16351 -0.50298 -0.46092 91.43717 -93.05602 -89.99993 5.32875 68.18513 -13.17851 0.03529 68.81697 100.60603 -64.16938 6.89428 -100.34234 11.63737 -0.90916 40.88255 -4.50666 -3.20834 -22.53305 -7.09077 -3.62096 -2.5483 44.56218 8.70322 0.19316 -27.83929 -6.62453 3.10073 2.24847
0.00076 6e-05 -0.00048 22.10916 -24.82828 -6.90072 43.76116 2.7613 -2.15691 -15.16624 -0.50062 -0.4609 91.55644 -93.06489 -90.00038 5.32875 68.16682 -13.17452 0.01306 68.93703 100.61083 -64.16933 6.87722 -100.3359 11.64507 -0.92479 40.87547 -4.52053 -3.28554 -22.5267 -7.08674 -3.61146 -2.54233 44.55882 8.69999 0.17596 -27.83951 -6.62364 3.10301 2.24972
0.00081 7e-05 -0.00053 22.10337 -24.83276 -6.90703 43.76579 2.76206 -2.15589 -15.16972 -0.49732 -0.46088 91.68284 -93.07152 -89.99928 5.32875 68.15234 -13.17119 -0.00742 69.06322 100.62023 -64.16935 6.8563 -100.3257 11.65509 -0.94096 40.86689 -4.5319 -3.36446 -22.51692 -7.08247 -3.6009 -2.53573 44.55524 8.69141 0.12723 -27.83992 -6.62361 3.10983 2.25332
0.00086 8e-05 -0.00059 22.0989 -24.83726 -6.91211 43.77008 2.76216 -2.15395 -15.17278 -0.49449 -0.46086 91.80262 -93.07971 -90.00099 5.32875 68.13567 -13.16792 -0.02833 69.18381 100.62757 -64.16934 6.83837 -100.31916 11.66312 -0.9561 40.85939 -4.54413 -3.44011 -22.50898 -7.07843 -3.59111 -2.52965 44.552 8.68554 0.09477 -27.84028 -6.62317 3.11445 2.25578
0.00091 9e-05 -0.00064 22.09412 -24.84148 -6.91791 43.77455 2.76277 -2.15397 -15.17609 -0.49145 -0.46083 91.93474 -93.08581 -90.00068 5.32875 68.11792 -13.16425 -0.05132 69.31457 100.63476 -64.16933 6.81488 -100.30456 11.67499 -0.97461 40.85046 -4.55754 -3.52585 -22.49993 -7.07393 -3.58021 -2.52267 44.54795 8.67865 0.05488 -27.84049 -6.62277 3.11957 2.2585
0.00095 0.0001 -0.0007 22.08933 -24.8462 -6.92278 43.77876 2.76263 -2.15017 -15.17913 -0.48862 -0.46083 92.04431 -93.0957 -89.99558 5.32875 68.1066 -13.1602 -0.06885 69.42752 100.64341 -64.16934 6.80252 -100.30554 11.67946 -0.98619 40.84399 -4.56794 -3.59139 -22.49234 -7.0703 -3.57132 -2.51736 44.54539 8.67261 0.02295 -27.84105 -6.6225 3.12471 2.26122
0.00098 0.0001 -0.00074 22.08505 -24.85278 -6.92459 43.78228 2.76008 -2.1355 -15.18077 -0.48676 -0.46091 92.08652 -93.11704 -90.01107 5.32875 68.09586 -13.16054 -0.0772 69.4772 100.65459 -64.16935 6.81868 -100.35346 11.66312 -0.97866 40.84544 -4.56989 -3.59739 -22.48974 -7.06919 -3.56833 -2.51697 44.54771 8.66962 0.01781 -27.84259 -6.62242 3.12931 2.26372
0.001 0.0001 -0.00077 22.08085 -24.85973 -6.9254 43.78546 2.75676 -2.11697 -15.18223 -0.48506 -0.46102 92.11034 -93.1429 -89.98763 5.32875 68.10153 -13.1553 -0.07864 69.51323 100.66723 -64.16932 6.84747 -100.41665 11.63942 -0.96415 40.84928 -4.56903 -3.58351 -22.48872 -7.06895 -3.56736 -2.51823 44.5514 8.66777 0.02234 -27.84447 -6.62243 3.13368 2.26607
0.00102 0.00011 -0.00081 22.07674 -24.8661 -6.92666 43.78865 2.75386 -2.10033 -15.18402 -0.48326 -0.46111 92.14016 -93.16542 -89.99552 5.32875 68.10159 -13.15418 -0.08028 69.56113 100.67936 -64.16939 6.87161 -100.47087 11.61874 -0.95262 40.85145 -4.56993 -3.58104 -22.48688 -7.06829 -3.56537 -2.51859 44.55394 8.66573 0.02397 -27.84613 -6.62235 3.13784 2.26826
0.00105 0.00011 -0.00084 22.07214 -24.87418 -6.92803 43.79246 2.75072 -2.08326 -15.18466 -0.48178 -0.4612 92.16473 -93.1902 -90.06037 5.32875 68.0654 -13.16334 -0.0962 69.57669 100.69072 -64.16938 6.88801 -100.53347 11.59877 -0.94167 40.85589 -4.56869 -3.56906 -22.48528 -7.06774 -3.56375 -2.51957 44.55863 8.66203 0.01748 -27.84806 -6.6225 3.14351 2.27149
0.00107 0.00011 -0.00088 22.06844 -24.87883 -6.92888 43.7949 2.74785 -2.066 -15.18782 -0.47938 -0.46132 92.21511 -93.21524 -89.85364 5.32875 68.14438 -13.1285 -0.07832 69.6671 100.70435 -64.16922 6.92736 -100.58239 11.57649 -0.92815 40.85639 -4.57127 -3.57158 -22.48368 -7.06715 -3.56187 -2.51968 44.55927 8.66225 0.03154 -27.84953 -6.62219 3.1459 2.27248
0.0011 0.00012 -0.00093 22.0686 -24.8734 -6.92879 43.79355 2.74607 -2.05047 -15.1964 -0.47701 -0.46151 92.18648 -93.20546 -90.18352 5.32875 68.22322 -13.16 0.0096 69.88174 100.71929 -64.16976 6.99249 -100.58726 11.54641 -0.90664 40.8437 -4.58534 -3.62395 -22.48106 -7.06619 -3.55868 -2.51682 44.54739 8.67164 0.09135 -27.84932 -6.6206 3.13935 2.26755
0.00112 0.00013 -0.00098 22.06935 -24.86458 -6.92815 43.79085 2.74454 -2.0346 -15.20785 -0.47323 -0.46175 92.22055 -93.20122 -90.03636 5.32875 68.47055 -13.11577 0.13484 70.19289 100.73645 -64.16902 7.08525 -100.57715 11.51819 -0.88314 40.82732 -4.60335 -3.69066 -22.47852 -7.06516 -3.55515 -2.51307 44.53158 8.68505 0.17274 -27.84871 -6.61855 3.12949 2.26036
